# xmcd
#
# Track frame offsets:
#	150
#	15047
#	31389
#	45218
#	63643
#	78281
#	92559
#	108499
#	123060
#	138027
#	154982
#	172771
#	188136
#	202759
#	216002
#	230161
#	245188
#	261225
#	276639
#	294645
#
# Disc length: 4136
#
# Revision: 1
# Processed by: cddbd v1.5.1PL0 Copyright (c) Steve Scherf et al.
# Submitted via: CDex 1.51
# Normalized: r0:TSWAP
#
DISCID=10102614
DTITLE=Various Artist - Promo Only Canada Country June 2002
DYEAR=2002
DGENRE=Country
TTITLE0=Kenny Chesney - The Good Stuff
TTITLE1=Sawyer Brown - Can You Hear Me Now
TTITLE2=Phil Vassar - American Child
TTITLE3=Martina McBride - Where Would You Be
TTITLE4=Pinmonkey - Barbed Wire And Roses
TTITLE5=Chris Ledoux - Bareback Jack
TTITLE6=Aaron Tippin - I'll Take Love Over Money
TTITLE7=Jenai - Cool Me Down
TTITLE8=Hank Williams Jr. - The 'F' Word
TTITLE9=The Clark Family Experience - Going Away
TTITLE10=Jimmy Rankin - Midnight Angel
TTITLE11=Chris Cagle - Country By The Grace Of God
TTITLE12=Jo Dee Messina - Dare To Dream
TTITLE13=Rodney Adkins - Sing Along
TTITLE14=Jeffrey Steele - Good To Go
TTITLE15=Kasey Chambers - Not Pretty Enough
TTITLE16=Cyndi Thomson - I'm Gone
TTITLE17=Sixwire - Look At Me Now
TTITLE18=Tamara Walker - Angel Eyes
TTITLE19=Cledus T. Judd - Breath
EXTD=YEAR: 2002
EXTT0=
EXTT1=
EXTT2=
EXTT3=
EXTT4=
EXTT5=
EXTT6=
EXTT7=
EXTT8=
EXTT9=
EXTT10=
EXTT11=
EXTT12=
EXTT13=
EXTT14=
EXTT15=
EXTT16=
EXTT17=
EXTT18=
EXTT19=
PLAYORDER=
